PathFileType	4	(X/Y/Z)	C:\Users\86182\Documents\cortex\Trimmed_M1_L9.trc
DataRate	CameraRate	NumFrames	NumMarkers	Units	OrigDataRate	OrigDataStartFrame	OrigNumFrames
100.00	100.00	       158	2	mm	100.00	1	       901
Frame#	Time	gripper			box			
		X1	Y1	Z1	X2	Y2	Z2	

1	0.000	199.67416	194.24527	192.95059	203.01027	193.62111	57.99739	
2	0.010	199.68379	194.23701	192.94347	202.95685	193.61938	58.02583	
3	0.020	199.67653	194.24324	192.94882	202.96567	193.61967	58.02113	
4	0.030	199.65698	194.24998	192.94478	202.96567	193.61967	58.02113	
5	0.040	199.66933	194.24940	192.95412	202.97453	193.61996	58.01640	
6	0.050	199.65263	194.26370	192.96642	202.97897	193.62010	58.01405	
7	0.060	199.63397	194.25629	192.93698	202.97012	193.61981	58.01876	
8	0.070	199.68199	194.22676	192.92307	202.97897	193.62010	58.01405	
9	0.080	199.67975	194.23882	192.94339	202.95685	193.61938	58.02583	
10	0.090	199.68108	194.22412	192.91742	203.02379	193.62154	57.99019	
11	0.100	199.67148	194.23752	192.93401	202.97897	193.62010	58.01405	
12	0.110	199.69264	194.22098	192.92139	203.00577	193.62096	57.99978	
13	0.120	199.66386	194.23386	192.92082	202.99232	193.62053	58.00693	
14	0.130	199.67699	194.22595	192.91734	203.01027	193.62111	57.99739	
15	0.140	199.64813	194.25594	192.94826	202.97453	193.61996	58.01640	
16	0.150	199.67392	194.23543	192.93221	202.96254	193.59779	58.00351	
17	0.160	199.63437	194.24908	192.92401	202.97012	193.61981	58.01876	
18	0.170	199.65582	194.24251	192.93001	203.00259	193.61812	57.99906	
19	0.180	199.65100	194.26347	192.96460	203.01027	193.62111	57.99739	
20	0.190	199.64670	194.26050	192.95549	202.96126	193.61952	58.02348	
21	0.200	199.64790	194.26776	192.96989	202.96378	193.61415	58.01731	
22	0.210	199.63388	194.26820	192.95886	202.97453	193.61996	58.01640	
23	0.220	199.65076	194.25870	192.95557	202.99942	193.61530	57.99833	
24	0.230	199.64931	194.26326	192.96277	203.02379	193.62154	57.99019	
25	0.240	199.61356	194.26544	192.93660	202.98787	193.62038	58.00931	
26	0.250	199.64554	194.26981	192.97165	202.95685	193.61938	58.02583	
27	0.260	199.64223	194.26933	192.96800	202.97897	193.62010	58.01405	
28	0.270	199.63223	194.26796	192.95702	202.98340	193.62024	58.01168	
29	0.280	199.63890	194.26889	192.96437	202.96567	193.61967	58.02113	
30	0.290	199.63554	194.26843	192.96069	202.99680	193.62068	58.00455	
31	0.300	199.63554	194.26843	192.96069	202.99232	193.62053	58.00693	
32	0.310	199.64554	194.26981	192.97165	203.00131	193.62082	58.00215	
33	0.320	199.64392	194.27254	192.96439	202.99680	193.62068	58.00455	
34	0.330	199.64474	194.27115	192.96800	202.98340	193.62024	58.01168	
35	0.340	199.64790	194.26776	192.96989	202.97012	193.61981	58.01876	
36	0.350	199.63223	194.26796	192.95702	202.98787	193.62038	58.00931	
37	0.360	199.64554	194.26981	192.97165	202.97453	193.61996	58.01640	
38	0.370	199.63792	194.26639	192.95895	203.00131	193.62082	58.00215	
39	0.380	199.64554	194.26981	192.97165	202.99232	193.62053	58.00693	
40	0.390	199.64554	194.26981	192.97165	203.00577	193.62096	57.99978	
41	0.400	199.64151	194.28259	192.94264	202.96126	193.61952	58.02348	
42	0.410	199.64554	194.26981	192.97165	203.01927	193.62140	57.99259	
43	0.420	199.63388	194.26820	192.95886	202.98787	193.62038	58.00931	
44	0.430	199.65060	194.27939	192.96083	202.96567	193.61967	58.02113	
45	0.440	199.63722	194.26866	192.96252	202.99232	193.62053	58.00693	
46	0.450	199.64696	194.26529	192.96452	202.99232	193.62053	58.00693	
47	0.460	199.64232	194.27531	192.95714	202.96567	193.61967	58.02113	
48	0.470	199.62885	194.26752	192.95334	203.00577	193.62096	57.99978	
49	0.480	199.63554	194.26843	192.96069	202.96126	193.61952	58.02348	
50	0.490	199.64554	194.26981	192.97165	203.00131	193.62082	58.00215	
51	0.500	199.64056	194.26910	192.96619	203.00131	193.62082	58.00215	
52	0.510	199.65501	194.26167	192.96466	203.00131	193.62082	58.00215	
53	0.520	199.63055	194.26773	192.95518	202.97012	193.61981	58.01876	
54	0.530	199.64503	194.26028	192.95366	202.96567	193.61967	58.02113	
55	0.540	199.65717	194.25485	192.95389	202.95685	193.61938	58.02583	
56	0.550	199.64362	194.26483	192.96085	202.97897	193.62010	58.01405	
57	0.560	199.64554	194.26981	192.97165	202.97897	193.62010	58.01405	
58	0.570	199.64790	194.26776	192.96989	202.98787	193.62038	58.00931	
59	0.580	199.64389	194.26956	192.96982	202.95685	193.61938	58.02583	
60	0.590	199.65976	194.25760	192.96115	202.98340	193.62024	58.01168	
61	0.600	199.64946	194.26711	192.96452	202.97897	193.62010	58.01405	
62	0.610	199.64558	194.27275	192.96620	202.95685	193.61938	58.02583	
63	0.620	199.64232	194.27531	192.95714	202.96126	193.61952	58.02348	
64	0.630	199.65221	194.25410	192.94833	202.95052	193.59473	58.00753	
65	0.640	199.65025	194.26575	192.96815	202.92421	193.57506	58.00492	
66	0.650	199.65501	194.26167	192.96466	202.94856	193.60820	58.02058	
67	0.660	199.65053	194.25388	192.94649	202.96567	193.61967	58.02113	
68	0.670	199.64554	194.26981	192.97165	202.94537	193.60536	58.01986	
69	0.680	199.64554	194.26981	192.97165	202.98787	193.62038	58.00931	
70	0.690	199.65976	194.25760	192.96115	202.97453	193.61996	58.01640	
71	0.700	199.66087	194.24326	192.93565	202.96126	193.61952	58.02348	
72	0.710	199.63388	194.26820	192.95886	203.02831	193.62169	57.98778	
73	0.720	199.64790	194.26776	192.96989	202.97453	193.61996	58.01640	
74	0.730	199.64458	194.26732	192.96628	202.99680	193.62068	58.00455	
75	0.740	199.64554	194.26981	192.97165	202.96500	193.61145	58.01423	
76	0.750	199.64554	194.26981	192.97165	202.95685	193.61938	58.02583	
77	0.760	199.64554	194.26981	192.97165	202.93468	193.59961	58.02076	
78	0.770	199.62234	194.26813	192.97163	202.95685	193.61938	58.02583	
79	0.780	199.55727	194.26688	193.00890	202.95050	193.61371	58.02438	
80	0.790	199.50502	194.26218	193.03491	202.92354	193.59038	58.02038	
81	0.800	199.49658	194.26100	193.03969	202.89720	193.56616	58.01222	
82	0.810	199.49658	194.26100	193.03969	202.89063	193.56177	58.01508	
83	0.820	199.50903	194.25227	193.06258	202.88486	193.55513	58.00942	
84	0.830	199.50839	194.27574	193.10539	202.88304	193.55470	58.00730	
85	0.840	199.50839	194.27574	193.10539	202.82353	193.53149	57.97965	
86	0.850	199.49213	194.22833	193.14647	202.80634	193.48903	57.85426	
87	0.860	199.48427	194.12816	193.35403	202.80800	193.48984	57.85253	
88	0.870	199.47435	194.16656	193.51578	202.80974	193.49065	57.85075	
89	0.880	199.55173	194.17914	193.70116	202.71252	193.39076	57.80920	
90	0.890	199.36168	194.16832	193.97830	202.71291	193.39081	57.80971	
91	0.900	199.48045	194.17828	194.03629	202.43083	193.35033	57.74332	
92	0.910	199.32504	194.12164	194.20415	202.39250	193.36710	57.67028	
93	0.920	199.37045	194.23106	194.62836	202.13678	193.37993	57.56823	
94	0.930	199.42935	194.10901	194.81223	201.86871	193.43784	57.61689	
95	0.940	199.56616	194.16713	195.27405	201.77231	193.56380	57.59884	
96	0.950	199.47833	194.20613	195.56943	201.85889	193.68007	57.55600	
97	0.960	199.38756	194.13263	195.98135	201.63635	193.76465	57.56342	
98	0.970	199.31686	194.16896	196.30602	201.63683	193.79939	57.52060	
99	0.980	199.50648	194.25642	196.79234	201.63277	193.76324	57.61313	
100	0.990	199.44978	194.34235	197.10941	201.53487	193.92873	57.76445	
101	1.000	199.45578	194.25476	197.59302	201.40257	193.97591	57.90385	
102	1.010	199.37794	194.27177	197.95018	201.45972	193.97635	58.05835	
103	1.020	199.41701	194.25450	198.52660	201.43097	194.05960	58.13955	
104	1.030	199.49771	194.18327	198.77463	201.47360	194.09862	58.77872	
105	1.040	199.33316	194.35963	199.35957	201.32823	194.03317	58.87428	
106	1.050	199.27672	194.38815	199.82765	201.36174	194.16556	59.14166	
107	1.060	199.44980	194.32619	200.29102	201.23872	194.18085	59.40450	
108	1.070	199.36058	194.28378	200.64375	201.16100	194.15752	59.79041	
109	1.080	199.41422	194.41591	201.02872	201.16603	194.27777	60.03204	
110	1.090	199.32918	194.38307	201.72417	201.18205	194.27116	60.37006	
111	1.100	199.32671	194.34698	201.98892	201.13121	194.28757	60.66076	
112	1.110	199.50156	194.28009	202.40056	201.08064	194.28664	60.71137	
113	1.120	199.59215	194.38092	202.74245	200.94839	194.26671	61.03290	
114	1.130	199.50043	194.38919	203.18758	201.02849	194.38135	61.11951	
115	1.140	199.25287	194.42722	203.70987	200.86784	194.34201	61.50146	
116	1.150	199.36452	194.48103	203.98375	200.81099	194.22876	61.81749	
117	1.160	199.51109	194.44687	204.55756	201.07236	194.42941	62.59128	
118	1.170	199.69971	194.35144	204.88988	200.93001	194.35411	62.84668	
119	1.180	199.50029	194.37991	205.22980	201.07626	194.36736	63.01942	
120	1.190	199.48756	194.50781	205.74312	201.14352	194.39368	63.38904	
121	1.200	199.48187	194.55867	206.30782	200.99013	194.42879	63.92444	
122	1.210	199.46266	194.52582	206.63188	200.99466	194.32721	64.40800	
123	1.220	199.71404	194.47961	206.92969	201.21802	194.47841	64.89217	
124	1.230	199.76625	194.41576	207.54854	201.11902	194.36691	65.17128	
125	1.240	199.58748	194.50908	208.03827	201.32796	194.39275	65.60182	
126	1.250	199.49525	194.51709	208.41899	201.21623	194.46259	66.04447	
127	1.260	199.54445	194.54807	208.72638	200.91873	194.42934	66.38655	
128	1.270	199.60155	194.51395	209.28435	200.94884	194.41444	66.86249	
129	1.280	199.62749	194.52667	209.63939	201.05191	194.50011	67.21203	
130	1.290	199.36191	194.52101	210.10951	201.29956	194.49182	67.62108	
131	1.300	199.53099	194.59183	210.47890	200.95953	194.53572	68.22073	
132	1.310	199.32364	194.47813	210.95018	200.81377	194.45380	68.49943	
133	1.320	199.31282	194.57091	211.38010	200.63998	194.39922	68.80370	
134	1.330	199.29051	194.51855	211.71828	200.67398	194.41098	69.23445	
135	1.340	199.39909	194.59958	212.14542	200.86353	194.38643	69.54349	
136	1.350	199.46451	194.50365	212.56482	200.60548	194.34137	70.22953	
137	1.360	199.42290	194.50230	212.96576	200.60527	194.31146	70.57990	
138	1.370	199.35739	194.54628	213.33078	200.59366	194.32774	70.96302	
139	1.380	199.43741	194.55650	213.91895	200.77567	194.31236	71.36950	
140	1.390	199.46361	194.54776	214.37007	200.71483	194.25409	71.80824	
141	1.400	199.60414	194.51808	214.62375	200.64890	194.15222	72.33611	
142	1.410	199.61655	194.58186	215.19646	200.82912	194.23685	72.83163	
143	1.420	199.48546	194.52007	215.65921	200.77971	194.19133	73.31418	
144	1.430	199.51614	194.50706	215.99940	200.73134	194.09293	73.59982	
145	1.440	199.63913	194.60558	216.32841	200.66568	194.20938	73.90723	
146	1.450	199.74352	194.60655	216.98782	200.62088	194.14020	74.43630	
147	1.460	199.58760	194.53708	217.33327	200.76756	194.10345	75.03062	
148	1.470	199.57312	194.56920	217.64555	200.59375	194.11800	75.39553	
149	1.480	199.53632	194.62891	218.01807	200.75166	194.11636	75.75016	
150	1.490	199.59721	194.75945	218.60390	200.62015	194.09274	75.88468	
151	1.500	199.30400	194.62041	219.07805	200.52293	194.20691	76.61935	
152	1.510	199.19203	194.49570	219.36215	200.42828	194.09760	76.94656	
153	1.520	199.27475	194.34831	219.81926	200.33276	194.02879	77.36331	
154	1.530	199.39116	194.32732	220.29030	200.45451	194.13037	77.72672	
155	1.540	199.12830	194.30809	220.58559	200.54712	194.04941	78.11430	
156	1.550	199.01799	194.40540	221.10341	200.49744	194.00319	78.62041	
157	1.560	198.97047	194.31097	221.59155	200.39246	194.08646	79.09232	
158	1.570	199.16292	194.32031	222.03529	200.37257	194.12582	79.32318	
